<svg width="20" height="20" viewBox="0 0 20 20" fill="none" xmlns="http://www.w3.org/2000/svg">
<path fill-rule="evenodd" clip-rule="evenodd" d="M9.98 2.25303C5.71251 2.25303 2.25303 5.71251 2.25303 9.98C2.25303 12.0026 3.02954 13.8432 4.30211 15.221C5.40234 13.2181 7.5319 11.8595 9.98 11.8595C12.4281 11.8595 14.5577 13.2181 15.6579 15.221C16.9305 13.8432 17.707 12.0026 17.707 9.98C17.707 5.71251 14.2475 2.25303 9.98 2.25303ZM14.6999 16.0984C13.8621 14.3325 12.0628 13.1125 9.98 13.1125C7.89718 13.1125 6.09791 14.3325 5.26013 16.0984C6.56575 17.1073 8.20218 17.707 9.98 17.707C11.7578 17.707 13.3942 17.1073 14.6999 16.0984ZM1 9.98C1 5.02049 5.02049 1 9.98 1C14.9395 1 18.96 5.02049 18.96 9.98C18.96 12.6862 17.7622 15.1132 15.87 16.7587C14.2937 18.1294 12.2331 18.96 9.98 18.96C7.72694 18.96 5.66631 18.1294 4.08998 16.7587C2.19778 15.1132 1 12.6862 1 9.98ZM9.98 5.59442C8.94197 5.59442 8.10047 6.43592 8.10047 7.47395C8.10047 8.51199 8.94197 9.35349 9.98 9.35349C11.018 9.35349 11.8595 8.51199 11.8595 7.47395C11.8595 6.43592 11.018 5.59442 9.98 5.59442ZM6.84744 7.47395C6.84744 5.74389 8.24993 4.34139 9.98 4.34139C11.7101 4.34139 13.1125 5.74389 13.1125 7.47395C13.1125 9.20402 11.7101 10.6065 9.98 10.6065C8.24993 10.6065 6.84744 9.20402 6.84744 7.47395Z" fill="#141718"/>
</svg>
